<svg width="500" height="158" viewBox="0 0 500 158" fill="none" xmlns="http://www.w3.org/2000/svg">
<path d="M0.5 0.5H499.5V153C499.5 155.485 497.485 157.5 495 157.5H5C2.51471 157.5 0.5 155.485 0.5 153V0.5Z" fill="white"/>
<path d="M164.205 66.3407H166.858C166.82 64.0076 164.902 62.3968 161.987 62.3968C159.117 62.3968 157.014 63.982 157.027 66.3598C157.021 68.2902 158.382 69.3961 160.594 69.9266L162.019 70.2846C163.445 70.6297 164.237 71.0388 164.244 71.9209C164.237 72.8797 163.329 73.5317 161.923 73.5317C160.485 73.5317 159.449 72.8669 159.36 71.5566H156.682C156.752 74.3883 158.778 75.852 161.955 75.852C165.151 75.852 167.03 74.3243 167.037 71.9273C167.03 69.7476 165.388 68.5907 163.112 68.0793L161.936 67.7981C160.798 67.536 159.846 67.1141 159.865 66.1745C159.865 65.3307 160.613 64.7107 161.968 64.7107C163.291 64.7107 164.103 65.3115 164.205 66.3407ZM175.144 71.4863C175.15 72.803 174.249 73.4934 173.271 73.4934C172.242 73.4934 171.577 72.7711 171.57 71.6141V65.8485H168.847V72.0999C168.854 74.3946 170.196 75.7945 172.171 75.7945C173.648 75.7945 174.709 75.0339 175.15 73.8833H175.252V75.6667H177.867V65.8485H175.144V71.4863ZM182.844 75.852C184.295 75.852 185.235 75.2192 185.714 74.3052H185.791V75.6667H188.373V69.0445C188.373 66.705 186.392 65.7206 184.206 65.7206C181.854 65.7206 180.307 66.8456 179.93 68.6354L182.448 68.84C182.633 68.188 183.215 67.7086 184.193 67.7086C185.12 67.7086 185.65 68.1752 185.65 68.9806V69.0189C185.65 69.6517 184.979 69.7348 183.273 69.901C181.329 70.08 179.584 70.732 179.584 72.9245C179.584 74.8677 180.972 75.852 182.844 75.852ZM183.624 73.9728C182.787 73.9728 182.186 73.5829 182.186 72.835C182.186 72.0679 182.819 71.6908 183.778 71.5566C184.372 71.4735 185.344 71.3329 185.67 71.1155V72.1574C185.67 73.1866 184.82 73.9728 183.624 73.9728ZM202.821 68.6482C202.578 66.8392 201.121 65.7206 198.641 65.7206C196.129 65.7206 194.473 66.884 194.479 68.776C194.473 70.2462 195.4 71.1986 197.318 71.5821L199.018 71.9209C199.874 72.0935 200.264 72.4067 200.277 72.8989C200.264 73.4806 199.631 73.8961 198.679 73.8961C197.707 73.8961 197.062 73.4806 196.896 72.6816L194.217 72.8222C194.473 74.7015 196.071 75.8584 198.673 75.8584C201.217 75.8584 203.038 74.5608 203.045 72.6241C203.038 71.205 202.112 70.3549 200.207 69.965L198.43 69.607C197.516 69.4089 197.177 69.0956 197.183 68.6226C197.177 68.0346 197.842 67.651 198.685 67.651C199.631 67.651 200.194 68.1688 200.328 68.8016L202.821 68.6482ZM207.559 75.852C209.01 75.852 209.95 75.2192 210.429 74.3052H210.506V75.6667H213.088V69.0445C213.088 66.705 211.107 65.7206 208.921 65.7206C206.568 65.7206 205.022 66.8456 204.644 68.6354L207.163 68.84C207.348 68.188 207.93 67.7086 208.908 67.7086C209.835 67.7086 210.365 68.1752 210.365 68.9806V69.0189C210.365 69.6517 209.694 69.7348 207.987 69.901C206.044 70.08 204.299 70.732 204.299 72.9245C204.299 74.8677 205.686 75.852 207.559 75.852ZM208.339 73.9728C207.502 73.9728 206.901 73.5829 206.901 72.835C206.901 72.0679 207.534 71.6908 208.492 71.5566C209.087 71.4735 210.059 71.3329 210.384 71.1155V72.1574C210.384 73.1866 209.534 73.9728 208.339 73.9728ZM219.637 75.8584C222.251 75.8584 223.894 74.3243 224.022 72.0679H221.452C221.293 73.1162 220.602 73.7043 219.669 73.7043C218.397 73.7043 217.572 72.6368 217.572 70.7576C217.572 68.9039 218.403 67.8428 219.669 67.8428C220.666 67.8428 221.305 68.5012 221.452 69.4792H224.022C223.907 67.21 222.187 65.7206 219.624 65.7206C216.646 65.7206 214.805 67.7853 214.805 70.7959C214.805 73.781 216.614 75.8584 219.637 75.8584ZM230.201 75.8584C233.18 75.8584 235.034 73.8194 235.034 70.7959C235.034 67.7533 233.18 65.7206 230.201 65.7206C227.223 65.7206 225.369 67.7533 225.369 70.7959C225.369 73.8194 227.223 75.8584 230.201 75.8584ZM230.214 73.7491C228.84 73.7491 228.137 72.4898 228.137 70.7767C228.137 69.0637 228.84 67.7981 230.214 67.7981C231.563 67.7981 232.266 69.0637 232.266 70.7767C232.266 72.4898 231.563 73.7491 230.214 73.7491ZM239.527 62.5758H236.804V75.6667H239.527V62.5758ZM244.508 75.852C245.959 75.852 246.899 75.2192 247.378 74.3052H247.455V75.6667H250.038V69.0445C250.038 66.705 248.056 65.7206 245.87 65.7206C243.518 65.7206 241.971 66.8456 241.594 68.6354L244.112 68.84C244.297 68.188 244.879 67.7086 245.857 67.7086C246.784 67.7086 247.315 68.1752 247.315 68.9806V69.0189C247.315 69.6517 246.643 69.7348 244.937 69.901C242.994 70.08 241.248 70.732 241.248 72.9245C241.248 74.8677 242.636 75.852 244.508 75.852ZM245.288 73.9728C244.451 73.9728 243.85 73.5829 243.85 72.835C243.85 72.0679 244.483 71.6908 245.442 71.5566C246.036 71.4735 247.008 71.3329 247.334 71.1155V72.1574C247.334 73.1866 246.484 73.9728 245.288 73.9728ZM260.791 75.8584C263.22 75.8584 264.856 74.6759 265.239 72.8542L262.721 72.688C262.446 73.4358 261.743 73.8258 260.835 73.8258C259.474 73.8258 258.611 72.9245 258.611 71.4607V71.4543H265.297V70.7064C265.297 67.3698 263.277 65.7206 260.682 65.7206C257.793 65.7206 255.92 67.7725 255.92 70.8023C255.92 73.9152 257.767 75.8584 260.791 75.8584ZM258.611 69.7668C258.668 68.6482 259.519 67.7533 260.727 67.7533C261.909 67.7533 262.727 68.5971 262.734 69.7668H258.611ZM275.243 68.6482C275 66.8392 273.543 65.7206 271.063 65.7206C268.551 65.7206 266.895 66.884 266.901 68.776C266.895 70.2462 267.822 71.1986 269.739 71.5821L271.44 71.9209C272.296 72.0935 272.686 72.4067 272.699 72.8989C272.686 73.4806 272.053 73.8961 271.101 73.8961C270.129 73.8961 269.484 73.4806 269.318 72.6816L266.639 72.8222C266.895 74.7015 268.493 75.8584 271.095 75.8584C273.639 75.8584 275.46 74.5608 275.467 72.6241C275.46 71.205 274.533 70.3549 272.629 69.965L270.852 69.607C269.938 69.4089 269.599 69.0956 269.605 68.6226C269.599 68.0346 270.264 67.651 271.107 67.651C272.053 67.651 272.616 68.1688 272.75 68.8016L275.243 68.6482ZM282.404 65.8485H280.556V63.4962H277.833V65.8485H276.491V67.8939H277.833V73.0076C277.821 74.9316 279.131 75.884 281.106 75.8009C281.809 75.7753 282.308 75.6347 282.583 75.5452L282.154 73.5189C282.02 73.5445 281.733 73.6084 281.477 73.6084C280.934 73.6084 280.556 73.4039 280.556 72.6496V67.8939H282.404V65.8485ZM286.977 75.852C288.428 75.852 289.368 75.2192 289.847 74.3052H289.924V75.6667H292.506V69.0445C292.506 66.705 290.525 65.7206 288.339 65.7206C285.986 65.7206 284.44 66.8456 284.062 68.6354L286.581 68.84C286.766 68.188 287.348 67.7086 288.326 67.7086C289.253 67.7086 289.783 68.1752 289.783 68.9806V69.0189C289.783 69.6517 289.112 69.7348 287.405 69.901C285.462 70.08 283.717 70.732 283.717 72.9245C283.717 74.8677 285.104 75.852 286.977 75.852ZM287.757 73.9728C286.92 73.9728 286.319 73.5829 286.319 72.835C286.319 72.0679 286.952 71.6908 287.91 71.5566C288.505 71.4735 289.476 71.3329 289.802 71.1155V72.1574C289.802 73.1866 288.952 73.9728 287.757 73.9728ZM287.463 64.5829H289.387L291.337 61.6745H288.818L287.463 64.5829ZM307.938 65.8485H305.055L303.023 72.8733H302.921L300.881 65.8485H298.005L301.438 75.6667H304.506L307.938 65.8485ZM311.85 75.852C313.301 75.852 314.241 75.2192 314.72 74.3052H314.797V75.6667H317.379V69.0445C317.379 66.705 315.398 65.7206 313.212 65.7206C310.859 65.7206 309.313 66.8456 308.935 68.6354L311.454 68.84C311.639 68.188 312.221 67.7086 313.199 67.7086C314.126 67.7086 314.656 68.1752 314.656 68.9806V69.0189C314.656 69.6517 313.985 69.7348 312.278 69.901C310.335 70.08 308.59 70.732 308.59 72.9245C308.59 74.8677 309.977 75.852 311.85 75.852ZM312.63 73.9728C311.793 73.9728 311.192 73.5829 311.192 72.835C311.192 72.0679 311.825 71.6908 312.783 71.5566C313.378 71.4735 314.35 71.3329 314.676 71.1155V72.1574C314.676 73.1866 313.825 73.9728 312.63 73.9728ZM319.441 75.6667H327.693V73.4934H323.014V73.4231L327.527 67.6191V65.8485H319.607V68.0218H324.248V68.0921L319.441 74.0431V75.6667ZM329.775 75.6667H332.498V65.8485H329.775V75.6667ZM331.143 64.5829C331.955 64.5829 332.62 63.9628 332.62 63.2022C332.62 62.4479 331.955 61.8279 331.143 61.8279C330.338 61.8279 329.673 62.4479 329.673 63.2022C329.673 63.9628 330.338 64.5829 331.143 64.5829ZM337.479 75.852C338.93 75.852 339.87 75.2192 340.349 74.3052H340.426V75.6667H343.008V69.0445C343.008 66.705 341.027 65.7206 338.841 65.7206C336.488 65.7206 334.941 66.8456 334.564 68.6354L337.083 68.84C337.268 68.188 337.85 67.7086 338.828 67.7086C339.755 67.7086 340.285 68.1752 340.285 68.9806V69.0189C340.285 69.6517 339.614 69.7348 337.907 69.901C335.964 70.08 334.219 70.732 334.219 72.9245C334.219 74.8677 335.606 75.852 337.479 75.852ZM338.259 73.9728C337.422 73.9728 336.821 73.5829 336.821 72.835C336.821 72.0679 337.454 71.6908 338.412 71.5566C339.007 71.4735 339.978 71.3329 340.304 71.1155V72.1574C340.304 73.1866 339.454 73.9728 338.259 73.9728Z" fill="#333333"/>
<path d="M205.036 107L206.06 104.116H210.177L211.201 107H212.494L208.755 96.8182H207.482L203.744 107H205.036ZM206.448 103.023L208.079 98.429H208.158L209.789 103.023H206.448ZM216.804 107.159C218.276 107.159 218.773 106.244 219.031 105.827H219.171V107H220.304V96.8182H219.131V100.577H219.031C218.773 100.179 218.315 99.2642 216.824 99.2642C214.895 99.2642 213.563 100.795 213.563 103.202C213.563 105.628 214.895 107.159 216.804 107.159ZM216.963 106.105C215.492 106.105 214.736 104.812 214.736 103.182C214.736 101.571 215.472 100.318 216.963 100.318C218.395 100.318 219.151 101.472 219.151 103.182C219.151 104.912 218.375 106.105 216.963 106.105ZM222.616 107H223.789V99.3636H222.616V107ZM223.212 98.0909C223.67 98.0909 224.048 97.733 224.048 97.2955C224.048 96.858 223.67 96.5 223.212 96.5C222.755 96.5 222.377 96.858 222.377 97.2955C222.377 97.733 222.755 98.0909 223.212 98.0909ZM229.04 107.159C230.731 107.159 231.844 106.125 232.043 104.773H230.87C230.651 105.608 229.955 106.105 229.04 106.105C227.648 106.105 226.753 104.952 226.753 103.182C226.753 101.452 227.668 100.318 229.04 100.318C230.074 100.318 230.691 100.955 230.87 101.651H232.043C231.844 100.219 230.631 99.2642 229.021 99.2642C226.952 99.2642 225.58 100.895 225.58 103.222C225.58 105.509 226.893 107.159 229.04 107.159ZM233.758 107H234.932V99.3636H233.758V107ZM234.355 98.0909C234.812 98.0909 235.19 97.733 235.19 97.2955C235.19 96.858 234.812 96.5 234.355 96.5C233.898 96.5 233.52 96.858 233.52 97.2955C233.52 97.733 233.898 98.0909 234.355 98.0909ZM240.183 107.159C242.251 107.159 243.643 105.588 243.643 103.222C243.643 100.835 242.251 99.2642 240.183 99.2642C238.115 99.2642 236.723 100.835 236.723 103.222C236.723 105.588 238.115 107.159 240.183 107.159ZM240.183 106.105C238.612 106.105 237.896 104.753 237.896 103.222C237.896 101.69 238.612 100.318 240.183 100.318C241.754 100.318 242.47 101.69 242.47 103.222C242.47 104.753 241.754 106.105 240.183 106.105ZM246.608 102.406C246.608 101.074 247.433 100.318 248.556 100.318C249.645 100.318 250.306 101.029 250.306 102.227V107H251.48V102.148C251.48 100.199 250.441 99.2642 248.894 99.2642C247.741 99.2642 247.025 99.7812 246.667 100.557H246.568V99.3636H245.434V107H246.608V102.406ZM256.825 107.159C258.377 107.159 259.51 106.384 259.868 105.23L258.734 104.912C258.436 105.707 257.745 106.105 256.825 106.105C255.448 106.105 254.499 105.215 254.444 103.58H259.987V103.082C259.987 100.239 258.297 99.2642 256.706 99.2642C254.638 99.2642 253.266 100.895 253.266 103.241C253.266 105.588 254.618 107.159 256.825 107.159ZM254.444 102.565C254.524 101.377 255.364 100.318 256.706 100.318C257.979 100.318 258.794 101.273 258.794 102.565H254.444ZM265.71 107H266.883V99.3636H265.71V107ZM266.306 98.0909C266.764 98.0909 267.141 97.733 267.141 97.2955C267.141 96.858 266.764 96.5 266.306 96.5C265.849 96.5 265.471 96.858 265.471 97.2955C265.471 97.733 265.849 98.0909 266.306 98.0909ZM272.353 99.3636H270.722V97.5341H269.549V99.3636H268.396V100.358H269.549V105.131C269.549 106.463 270.623 107.099 271.617 107.099C272.055 107.099 272.333 107.02 272.492 106.96L272.253 105.906C272.154 105.926 271.995 105.966 271.736 105.966C271.219 105.966 270.722 105.807 270.722 104.812V100.358H272.353V99.3636ZM277.237 107.159C278.789 107.159 279.922 106.384 280.28 105.23L279.147 104.912C278.848 105.707 278.157 106.105 277.237 106.105C275.86 106.105 274.911 105.215 274.856 103.58H280.399V103.082C280.399 100.239 278.709 99.2642 277.118 99.2642C275.05 99.2642 273.678 100.895 273.678 103.241C273.678 105.588 275.03 107.159 277.237 107.159ZM274.856 102.565C274.936 101.377 275.776 100.318 277.118 100.318C278.391 100.318 279.206 101.273 279.206 102.565H274.856ZM283.358 102.406C283.358 101.074 284.183 100.318 285.306 100.318C286.395 100.318 287.056 101.029 287.056 102.227V107H288.23V102.148C288.23 100.199 287.191 99.2642 285.644 99.2642C284.491 99.2642 283.775 99.7812 283.417 100.557H283.318V99.3636H282.184V107H283.358V102.406ZM295.783 101.074C295.415 99.9901 294.59 99.2642 293.078 99.2642C291.467 99.2642 290.274 100.179 290.274 101.472C290.274 102.526 290.901 103.232 292.303 103.56L293.575 103.858C294.346 104.037 294.709 104.405 294.709 104.932C294.709 105.588 294.013 106.125 292.919 106.125C291.96 106.125 291.358 105.712 291.149 104.892L290.036 105.17C290.309 106.468 291.378 107.159 292.939 107.159C294.714 107.159 295.922 106.19 295.922 104.872C295.922 103.808 295.256 103.137 293.894 102.804L292.76 102.526C291.855 102.302 291.448 101.999 291.448 101.412C291.448 100.756 292.144 100.278 293.078 100.278C294.102 100.278 294.525 100.845 294.729 101.372L295.783 101.074Z" fill="#828282"/>
<path d="M0.5 0.5H499.5V153C499.5 155.485 497.485 157.5 495 157.5H5C2.51471 157.5 0.5 155.485 0.5 153V0.5Z" stroke="#F5F5F5"/>
</svg>
